# xmcd
#
# Track frame offsets:
#	150
#	19813
#	33468
#	48250
#	62658
#	77910
#	90967
#	105095
#	121767
#	138175
#	153187
#	160569
#	173484
#	185889
#	197469
#	208459
#	220787
#	230117
#
# Disc length: 3215
#
# Revision: 1
# Processed by: cddbd v1.5.1PL0 Copyright (c) Steve Scherf et al.
# Submitted via: dBpowerAMP V4.0
# Normalized: r0:TDELIM( - )
#
DISCID=e20c8d12
DTITLE=Various Artist - It´s Country Time - Bonanza
DYEAR=1900
DGENRE=Country
TTITLE0=The Bellamy Brothers - If I Said You Have A Beautiful Body
TTITLE1=Tammy Vynette - Stand By Your Man
TTITLE2=Hoyt Axton - Evangelina
TTITLE3=Freddy Fender - Mexican Rose
TTITLE4=Denise Price - One Of A Kind
TTITLE5=Mickey Gilley - Headache Tomorrow Or Heartache Tonight
TTITLE6=The Forrester Sisters - I Fell In Love Again Last Night
TTITLE7=Tex Williams - Deck Of Cards
TTITLE8=Johnny Rodriguez - North Of The Border
TTITLE9=Jeannie C. Riley - Harper Valley P.T.A.
TTITLE10=The Hollywood Filmfestival Orchestra - Bonanza
TTITLE11=Charlie Rich - Behind Closed Doors
TTITLE12=Dottie West - Here Comes My Baby
TTITLE13=George Jones - She's My Rock
TTITLE14=Darrel McCall - Pins and Needles
TTITLE15=Lynn Anderson - Even Cowgirls Get The Blues
TTITLE16=Rockin' Sidney - Jalapeno Lena
TTITLE17=Willie Nelson and Waylon Jennings - Dream Baby
EXTD=rip by Feenix
EXTT0=
EXTT1=
EXTT2=
EXTT3=
EXTT4=
EXTT5=
EXTT6=
EXTT7=
EXTT8=
EXTT9=
EXTT10=
EXTT11=
EXTT12=
EXTT13=
EXTT14=
EXTT15=
EXTT16=
EXTT17=
PLAYORDER=
